<svg width="340" height="102" viewBox="0 0 340 102" fill="none" xmlns="http://www.w3.org/2000/svg">
<path d="M114.548 65.5453H118.071C119.832 65.5453 120.925 66.3974 120.925 67.858V67.9189C120.925 69.3186 119.832 70.2924 118.071 70.2924H114.548V65.5453ZM112.119 63.3544V77.4129H114.548V72.4833H117.585L120.986 77.4129H123.841L120.136 72.1181C122.079 71.5704 123.416 70.1706 123.416 67.858V67.7971C123.416 66.5799 122.99 65.5453 122.262 64.7542C121.35 63.8413 120.014 63.3544 118.314 63.3544H112.119ZM130.825 63.3544V77.4129H141.09V75.222H133.194V71.4487H140.118V69.2578H133.194V65.6062H140.968V63.4153H130.825V63.3544ZM165.809 63.3544V65.6671H170.182V77.4129H172.612V65.6671H176.985V63.3544H165.809ZM184.212 77.4129H186.642V63.3544H184.212V77.4129ZM204.559 63.3544L200.429 74.1873L196.299 63.3544H193.626L199.335 77.5346H201.461L207.17 63.3544H204.559ZM214.034 63.3544V77.4129H224.298V75.222H216.402V71.4487H223.326V69.2578H216.402V65.6062H224.176V63.4153H214.034V63.3544ZM257.946 63.3544V65.6671H262.319V77.4129H264.748V65.6671H269.121V63.3544H257.946ZM285.338 63.3544V71.4487C285.338 74.0656 284.001 75.3437 281.876 75.3437C279.689 75.3437 278.414 73.9439 278.414 71.327V63.3544H275.984V71.4487C275.984 75.5262 278.292 77.6563 281.815 77.6563C285.398 77.6563 287.706 75.5262 287.706 71.327V63.3544H285.338V63.3544ZM297.971 65.5453H300.704C303.619 65.5453 305.502 67.5537 305.502 70.3532V70.4141C305.502 73.1527 303.619 75.1611 300.704 75.1611H297.971V65.5453ZM295.541 63.3544V77.4129H300.643C304.955 77.4129 307.931 74.3699 307.931 70.4141V70.3532C307.931 66.3974 304.955 63.3544 300.643 63.3544H295.541ZM315.584 77.4129H318.014V63.3544H315.584V77.4129ZM154.512 66.1539L156.881 71.753H152.144L154.512 66.1539ZM153.419 63.2327L147.345 77.4129H149.836L151.233 74.0048H157.731L159.128 77.4129H161.679L155.606 63.2327H153.419ZM241.729 67.1885C241.729 69.8055 243.369 70.7184 246.284 71.4487C248.835 72.0573 249.382 72.605 249.382 73.5788V73.6396C249.382 74.6742 248.41 75.4045 246.952 75.4045C245.252 75.4045 243.916 74.7351 242.64 73.5788L241.183 75.3437C242.822 76.8652 244.827 77.5955 246.892 77.5955C249.807 77.5955 251.811 76.0131 251.811 73.3962V73.3353C251.811 71.0227 250.293 69.9272 247.378 69.1969C244.766 68.5274 244.098 68.1014 244.098 67.006V66.9451C244.098 66.0322 244.948 65.3019 246.345 65.3019C247.621 65.3019 248.835 65.7888 250.05 66.7625L251.325 64.8759C249.929 63.7196 248.349 63.111 246.345 63.111C243.733 63.111 241.729 64.815 241.729 67.1885ZM92.5009 70.3532C92.5009 74.4308 95.477 77.5955 99.4855 77.5955C102.036 77.5955 103.616 76.6217 105.073 75.1002L103.494 73.5179C102.34 74.6134 101.247 75.3437 99.5463 75.3437C96.9346 75.3437 94.9911 73.0919 94.9911 70.3532V70.2924C94.9911 67.5537 96.8739 65.3019 99.5463 65.3019C101.125 65.3019 102.279 66.0322 103.373 67.0668L104.952 65.241C103.616 63.963 102.097 63.0501 99.5463 63.0501C95.4162 63.111 92.5009 66.3365 92.5009 70.3532ZM328.096 70.3532C328.096 67.5537 329.979 65.3628 332.712 65.3628C335.445 65.3628 337.388 67.6146 337.388 70.3532V70.4141C337.388 73.1527 335.506 75.4045 332.772 75.4045C330.039 75.3437 328.096 73.0919 328.096 70.3532ZM325.606 70.3532C325.606 74.3699 328.582 77.5955 332.772 77.5955C337.024 77.5955 340 74.3091 340 70.3532V70.2924C340 66.3365 337.024 63.0501 332.833 63.0501C328.582 63.111 325.606 66.3974 325.606 70.3532ZM48.9532 18.136C48.1029 18.136 47.4348 18.8055 47.4348 19.6575V40.2279H33.2226V19.5967C33.2226 18.7446 32.5545 18.0752 31.7042 18.0752H19.1926C18.3423 18.0752 17.6742 18.7446 17.6742 19.5967V68.8317C17.6742 70.1098 18.403 71.327 19.557 71.9356L33.2226 79.0561V53.6778H47.4348V79.1169L61.1004 71.9964C62.2544 71.3878 62.9832 70.2315 62.9832 68.8926V19.5967C62.9832 18.7446 62.3151 18.0752 61.4648 18.0752H48.9532V18.136ZM119.164 13.2064V27.6909H105.438V13.2064H94.7481V51.852H105.438V37.1241H119.164V51.7912H129.854V13.2064H119.164ZM161.193 13.2064V34.9332C161.193 40.3496 158.399 42.9057 154.087 42.9057C149.775 42.9057 146.981 40.2279 146.981 34.6897V13.2064H136.109V34.8723C136.109 46.9833 142.972 52.5215 153.966 52.5215C164.898 52.5215 172.004 47.0441 172.004 34.568V13.2064H161.193ZM189.071 22.7005H193.444C199.821 22.7005 204.073 26.2912 204.073 32.4379V32.5597C204.073 38.7673 199.821 42.2971 193.444 42.2971H189.071V22.7005ZM178.382 13.2064V51.852H193.019C206.867 51.852 215.005 43.5752 215.005 32.4379V32.2554C215.005 21.1181 207.049 13.1456 193.262 13.1456H178.382V13.2064ZM327.428 13.2064V33.5943L311.576 13.2064H301.615V51.852H312.183V30.6122L328.642 51.7912H337.996V13.2064H327.428ZM218.832 24.8914V25.0131C218.832 32.9857 225.148 35.2983 233.348 37.1241C238.571 38.3413 239.846 39.1933 239.846 40.8365V40.9582C239.846 42.6014 238.328 43.636 235.413 43.636C230.979 43.636 226.727 42.0537 222.901 39.0107L216.949 46.1313C221.686 50.3914 228.185 52.5215 234.987 52.5215C244.341 52.5215 250.597 47.8353 250.597 39.9236V39.8019C250.597 32.5597 245.07 29.6993 236.202 27.7518C230.857 26.5346 229.521 25.7434 229.521 23.9785V23.8568C229.521 22.457 230.797 21.3616 233.348 21.3616C236.749 21.3616 240.636 22.7005 244.159 25.1957L249.625 17.6492C245.434 14.3019 240.332 12.537 233.773 12.537C224.541 12.537 218.832 17.71 218.832 24.8914ZM265.477 32.4988V32.3771C265.477 26.778 269.364 22.031 275.195 22.031C281.086 22.031 285.095 26.8998 285.095 32.4379V32.5597C285.095 38.1587 281.208 42.9057 275.316 42.9057C269.486 42.9057 265.477 38.037 265.477 32.4988ZM254.544 32.4988V32.6205C254.544 43.6969 263.351 52.5823 275.255 52.5823C287.16 52.5823 296.088 43.5752 296.088 32.4988V32.3771C296.088 21.3007 287.281 12.4153 275.377 12.4153C263.473 12.4153 254.544 21.4224 254.544 32.4988ZM11.6006 77.1086C10.0822 76.3174 9.17113 74.7959 9.17113 73.0919V11.4415C9.17113 10.1635 10.2036 9.18974 11.4184 9.18974H69.2997C70.5752 9.18974 71.547 10.2243 71.547 11.4415V73.0919C71.547 74.7959 70.6359 76.3174 69.1175 77.1086L40.3287 92.7494L11.6006 77.1086ZM5.28403 0C2.3687 0 0 2.37351 0 5.29475V77.7172C0 79.969 1.27546 82.0382 3.21901 83.0728L36.5023 101.087C37.717 101.696 38.9925 102 40.268 102H40.3287C41.6041 102 42.9403 101.696 44.0943 101.087L77.3776 83.0728C79.3819 82.0382 80.5966 79.969 80.5966 77.7172V5.29475C80.5966 2.37351 78.2279 0 75.3126 0H5.28403Z" fill="url(#paint0_linear)"/>
<defs>
<linearGradient id="paint0_linear" x1="-41.4139" y1="-32.0021" x2="378.597" y2="42.1106" gradientUnits="userSpaceOnUse">
<stop stop-color="#4E40F1"/>
<stop offset="0.473958" stop-color="#4D6BD8"/>
<stop offset="1" stop-color="#3183E2"/>
</linearGradient>
</defs>
</svg>