<svg xmlns="http://www.w3.org/2000/svg" xmlns:xlink="http://www.w3.org/1999/xlink" viewBox="0 0 233.61 47.92">
  <defs>
    <clipPath id="clip-path" transform="translate(-0.01 0)">
      <rect x="-0.05" y="-0.06" width="233.67" height="48" fill="none"/>
    </clipPath>
  </defs>
  <g clip-path="url(#clip-path)">
    <g>
      <path d="M43.64,11a13.4,13.4,0,0,0-23.37,0A26.39,26.39,0,0,1,32,8.34,29.69,29.69,0,0,1,43.64,11Z" transform="translate(-0.01 0)" fill="#ef5530" fill-rule="evenodd"/>
      <path d="M28.8.48A13.45,13.45,0,0,0,15.7,3.94a13.78,13.78,0,0,0-3.46,13.28,28.38,28.38,0,0,1,6.4-10.28A27.8,27.8,0,0,1,28.8.48Z" transform="translate(-0.01 0)" fill="#f5911e" fill-rule="evenodd"/>
      <path d="M11,3.65a13.72,13.72,0,0,0,0,23.69A27.16,27.16,0,0,1,8.28,15.49,27,27,0,0,1,11,3.65Z" transform="translate(-0.01 0)" fill="#ffcc25" fill-rule="evenodd"/>
      <path d="M.46,18.7A14,14,0,0,0,4,31.94a13.48,13.48,0,0,0,13.11,3.57A28,28,0,0,1,6.86,29,29,29,0,0,1,.46,18.7Z" transform="translate(-0.01 0)" fill="#b8cf32" fill-rule="evenodd"/>
      <path d="M3.51,36.84a13.39,13.39,0,0,0,23.36,0,26.55,26.55,0,0,1-11.68,2.65A26.55,26.55,0,0,1,3.51,36.84Z" transform="translate(-0.01 0)" fill="#1ea34e" fill-rule="evenodd"/>
      <path d="M18.44,47.46a13.55,13.55,0,0,0,13.11-3.58A13.77,13.77,0,0,0,35,30.61a28.22,28.22,0,0,1-6.4,10.33A26.68,26.68,0,0,1,18.44,47.46Z" transform="translate(-0.01 0)" fill="#4290cd" fill-rule="evenodd"/>
      <path d="M36.32,44.29a13.71,13.71,0,0,0,0-23.69A28.71,28.71,0,0,1,39,32.45,27.39,27.39,0,0,1,36.32,44.29Z" transform="translate(-0.01 0)" fill="#6f54a1" fill-rule="evenodd"/>
      <path d="M46.78,29.18a14,14,0,0,0-3.45-13.24,13.48,13.48,0,0,0-13.11-3.57A28,28,0,0,1,40.38,18.9,29.1,29.1,0,0,1,46.78,29.18Z" transform="translate(-0.01 0)" fill="#cf1874" fill-rule="evenodd"/>
    </g>
    <g class="icon-text">
      <path d="M62.43,22.13A2.14,2.14,0,0,1,63,20.6,2.1,2.1,0,0,1,64.56,20h2.85V31.42a1.9,1.9,0,0,1-.61,1.52,1.8,1.8,0,0,1-1.42.61h-.92A2.53,2.53,0,0,1,63,32.94a1.81,1.81,0,0,1-.51-1.43Zm5.28-11.44-.3-.1v6.13H63.55a4.49,4.49,0,0,0-4.37,4.39V32.34a4.9,4.9,0,0,0,1.32,3.27,4.39,4.39,0,0,0,3.15,1.33h2.74A4.71,4.71,0,0,0,70,35a4.84,4.84,0,0,0,.81-2.66V11.94l-.1-.1C70.05,11.61,69,11.1,67.71,10.69Z" transform="translate(-0.01 0)" fill="#010101" fill-rule="evenodd"/>
      <path d="M74.72,10.69l-.3-.1v3.88h3.25V12l-.1-.1A13.56,13.56,0,0,0,74.72,10.69Z" transform="translate(-0.01 0)" fill="#010101" fill-rule="evenodd"/>
      <path d="M74.42,37h3.35V16.72H74.42Z" transform="translate(-0.01 0)" fill="#010101" fill-rule="evenodd"/>
      <path d="M96.77,10.69l-.3-.1v3.88h3.25V12l-.21-.2C99,11.61,98,11.1,96.77,10.69Z" transform="translate(-0.01 0)" fill="#010101" fill-rule="evenodd"/>
      <path d="M96.36,37h3.36V16.72H96.36Z" transform="translate(-0.01 0)" fill="#010101" fill-rule="evenodd"/>
      <path d="M197.66,10.69l-.31-.1v3.88h3.25V12l-.1-.1A16.58,16.58,0,0,0,197.66,10.69Z" transform="translate(-0.01 0)" fill="#010101" fill-rule="evenodd"/>
      <path d="M197.35,37h3.25V16.72h-3.25Z" transform="translate(-0.01 0)" fill="#010101" fill-rule="evenodd"/>
      <path d="M89.56,33.67H86.71a2,2,0,0,1-1.52-.61,2.07,2.07,0,0,1-.61-1.43v-9.4a2,2,0,0,1,.61-1.43,2.2,2.2,0,0,1,1.52-.61h.71a2.08,2.08,0,0,1,2.14,2Zm1.62-15.83a4.73,4.73,0,0,0-2.84-1.12H85.59a4.54,4.54,0,0,0-3.14,1.43,4.75,4.75,0,0,0-1.22,3.06V32.34a5.19,5.19,0,0,0,1.32,3.17,4.44,4.44,0,0,0,3.15,1.33h3.76v3.37a2.26,2.26,0,0,1-.61,1.43,2.07,2.07,0,0,1-1.43.61H82.65v3.37h5.79A4.57,4.57,0,0,0,91.69,44a4.93,4.93,0,0,0,1.12-3.05V21.11A4.16,4.16,0,0,0,91.18,17.84Z" transform="translate(-0.01 0)" fill="#010101" fill-rule="evenodd"/>
      <path d="M122.78,31.53a2.68,2.68,0,0,1-.61,1.53,2.52,2.52,0,0,1-1.32.61H120a1.82,1.82,0,0,1-1.43-.61,2.21,2.21,0,0,1-.61-1.43V29.18a2.28,2.28,0,0,1,.61-1.33,2.46,2.46,0,0,1,1.43-.61h2.84ZM126,21.11a4.41,4.41,0,0,0-1.22-3,4.54,4.54,0,0,0-3.15-1.43h-5.89v3.37h4.88a2,2,0,0,1,1.42.61,2.21,2.21,0,0,1,.61,1.43v1.74H119a4.05,4.05,0,0,0-3.15,1.43,4.69,4.69,0,0,0-1.32,3.06v4a4.49,4.49,0,0,0,1.22,3.17,4.82,4.82,0,0,0,3.12,1.45h2.84a4.54,4.54,0,0,0,3.15-1.43A4.36,4.36,0,0,0,126,32.45Z" transform="translate(-0.01 0)" fill="#010101" fill-rule="evenodd"/>
      <path d="M135.17,33.67a2.39,2.39,0,0,1-1.52-.61,2.07,2.07,0,0,1-.61-1.43V12l-.09-.08a16.34,16.34,0,0,0-2.85-1.23l-.3-.1v22A5,5,0,0,0,131,35.67a4.55,4.55,0,0,0,3.25,1.43h1.93V33.67Z" transform="translate(-0.01 0)" fill="#010101" fill-rule="evenodd"/>
      <path d="M150.31,11.51l-.1-.1a16.34,16.34,0,0,0-2.85-1.23l-.3-.1v6.54H143.2V20H147V32.45a5,5,0,0,0,1.22,3.06,4.53,4.53,0,0,0,3.26,1.43h1.93V33.57h-1a2.39,2.39,0,0,1-1.52-.61,2.07,2.07,0,0,1-.61-1.43V20H154V16.62h-3.66Z" transform="translate(-0.01 0)" fill="#010101" fill-rule="evenodd"/>
      <path d="M109.17,11.51l-.11-.1a16.25,16.25,0,0,0-2.84-1.23l-.31-.1v6.54h-3.75V20H106V32.45a5,5,0,0,0,1.22,3.06,4.55,4.55,0,0,0,3.21,1.43h1.93V33.57h-1a2.39,2.39,0,0,1-1.53-.61,2.06,2.06,0,0,1-.6-1.43V20H113V16.62H109.2Z" transform="translate(-0.01 0)" fill="#010101" fill-rule="evenodd"/>
      <path d="M189.83,32.94a2.39,2.39,0,0,1-1.52.61h-.81a2.26,2.26,0,0,1-1.43-.61,1.9,1.9,0,0,1-.61-1.54V20h3a2.44,2.44,0,0,1,1.52.61,2,2,0,0,1,.61,1.43v9.39C190.44,31.53,190.44,32.45,189.83,32.94Zm3.86-11.85a4.49,4.49,0,0,0-4.47-4.39h-3.76V11.94l-.1-.1a16.58,16.58,0,0,0-2.84-1.23l-.31-.1V32.24A4.58,4.58,0,0,0,183,34.9a4.64,4.64,0,0,0,3.66,2h2.64a4.6,4.6,0,0,0,3.15-1.33,4.91,4.91,0,0,0,1.33-3.27Z" transform="translate(-0.01 0)" fill="#010101" fill-rule="evenodd"/>
      <path d="M214.62,17.84a4.73,4.73,0,0,0-2.84-1.12H209a4.58,4.58,0,0,0-3.15,1.43,4.75,4.75,0,0,0-1.22,3.06V36.94H208V22.13a1.9,1.9,0,0,1,.61-1.43,2.2,2.2,0,0,1,1.52-.61h.71a2.14,2.14,0,0,1,1.53.61,2.07,2.07,0,0,1,.61,1.43V36.94h3.35V21.21A5.44,5.44,0,0,0,214.62,17.84Z" transform="translate(-0.01 0)" fill="#010101" fill-rule="evenodd"/>
      <path d="M173.07,18.15a5.14,5.14,0,0,0-1.22,3.06V36.94h3.35V22.13a1.9,1.9,0,0,1,.61-1.43,2.22,2.22,0,0,1,1.53-.61h2.43V16.72h-3.35A4.56,4.56,0,0,0,173.07,18.15Z" transform="translate(-0.01 0)" fill="#010101" fill-rule="evenodd"/>
      <path d="M165,31.53a2,2,0,0,1-.61,1.43,2.2,2.2,0,0,1-1.52.61h-.71a2.14,2.14,0,0,1-1.53-.61,2.07,2.07,0,0,1-.61-1.43V16.72h-3.35V32.45a4.6,4.6,0,0,0,1.63,3.49,5,5,0,0,0,2.84,1.12H164a4.54,4.54,0,0,0,3.14-1.43,4.75,4.75,0,0,0,1.22-3.06V16.82H165Z" transform="translate(-0.01 0)" fill="#010101" fill-rule="evenodd"/>
      <path d="M222.14,22.13a2.68,2.68,0,0,1,.61-1.53,2.5,2.5,0,0,1,1.42-.61H225a1.8,1.8,0,0,1,1.42.61A2.21,2.21,0,0,1,227,22v2.45a2.37,2.37,0,0,1-.61,1.33,2.5,2.5,0,0,1-1.42.61H222Zm6.91,6.23a4.74,4.74,0,0,0,1.32-3.06v-4A5.55,5.55,0,0,0,229.15,18,4.83,4.83,0,0,0,226,16.61h-2.84A4.54,4.54,0,0,0,220,18a4.36,4.36,0,0,0-1.22,3.06V32.34a4.41,4.41,0,0,0,1.22,3,4.53,4.53,0,0,0,3.15,1.42h5.89v-3.4h-4.88a2,2,0,0,1-1.42-.61,2.21,2.21,0,0,1-.61-1.43V29.59H226A3.74,3.74,0,0,0,229.05,28.36Z" transform="translate(-0.01 0)" fill="#010101" fill-rule="evenodd"/>
      <path d="M231.69,35.51h.2c.21,0,.41-.1.41-.2s-.1-.21-.31-.21h-.2Zm0,.92h-.41V34.79h.61c.31,0,.41,0,.51.11s.2.2.2.3a.55.55,0,0,1-.3.41c.2.1.2.21.3.41a.82.82,0,0,1,.11.41h-.41c0-.1-.1-.21-.1-.41a.28.28,0,0,0-.25-.31h-.26Zm-.92-.82a1.22,1.22,0,0,0,2.43-.22A1.22,1.22,0,0,0,232,34.28,1.26,1.26,0,0,0,230.77,35.61Zm2.85,0A1.63,1.63,0,1,1,232,33.94a1.61,1.61,0,0,1,1.67,1.55v.12Z" transform="translate(-0.01 0)" fill="#010101" fill-rule="evenodd"/>
    </g>
  </g>
</svg>
